<?xml version="1.0" encoding="utf-8"?>
<!-- Generator: Adobe Illustrator 21.1.0, SVG Export Plug-In . SVG Version: 6.00 Build 0)  -->
<svg version="1.1" id="Layer_1" xmlns="http://www.w3.org/2000/svg" xmlns:xlink="http://www.w3.org/1999/xlink" x="0px" y="0px"
	 viewBox="0 0 600 167" style="enable-background:new 0 0 600 167;" xml:space="preserve">
<style type="text/css">
	.st0{fill:#0098CD;}
	.st1{fill:#333333;}
</style>
<g>
	<path class="st0" d="M93.4,40.4c0,0.7,0,1.5,0,2.2c-1.2,19.8-17.7,35.5-37.7,35.5H35.9v20.3H12.5V2.6c0,0,35.2,0,46.6,0
		c19.8,0,33.3,16.8,34.3,35.5C93.4,38.9,93.4,39.6,93.4,40.4z M52.2,22.5c-10.2,0-18.4,8.2-18.4,18.4S42,59.3,52.2,59.3
		s18.4-8.2,18.4-18.4S62.4,22.5,52.2,22.5z"/>
	<path class="st0" d="M168.9,21.4v19.3c-1.5-0.3-3.1-0.4-4.7-0.4c-10.9,0-20.3,8.4-20.3,23.1c0,9.7,0,35.1,0,35.1h-22.7V22.7h22.7
		v8.8c1-2.5,5.2-11.1,18-11.1C164.2,20.5,166.8,20.8,168.9,21.4z"/>
	<path class="st0" d="M264.1,60.9c0,5.5-1.2,10.8-3.2,15.8c-2.1,4.9-5,9.1-8.7,12.8c-3.7,3.8-8,6.6-12.8,8.7
		c-5,2.2-10.3,3.2-15.8,3.2s-10.8-1-15.8-3.1c-4.9-2.1-9.1-5-13-8.7c-3.7-3.7-6.6-8.1-8.7-12.8c-2.1-5-3.1-10.3-3.1-15.8
		c-0.1-5.5,1-10.8,3.1-15.8c2.1-4.9,5-9.3,8.7-13c3.7-3.7,8-6.6,12.8-8.7c5-2.1,10.3-3.2,15.8-3.2c5.5,0,10.8,1,15.8,3.2
		c4.9,1.9,9.1,4.9,13,8.5c3.7,3.8,6.6,8.1,8.7,13C262.9,50.1,264,55.4,264.1,60.9z M243.9,60.9c0-11.4-9.1-20.3-20.5-20.3
		c-11.2,0-20.3,9.1-20.3,20.3c0,11.4,9.1,20.5,20.5,20.5C234.8,81.4,243.9,72.1,243.9,60.9z"/>
	<path class="st0" d="M317.3,87.3c0,4.1-1.9,8.1-5.2,11.1c-3.2,2.9-7.7,4.6-12.2,4.6c-4.7,0-9-1.6-12.2-4.6
		c-3.5-2.9-5.3-6.9-5.3-11.1c0-4.3,1.8-8.3,5.3-11.4c3.2-2.8,7.5-4.4,12.2-4.4c4.6,0,9,1.6,12.2,4.4C315.4,79,317.3,83,317.3,87.3z"
		/>
	<path class="st0" d="M432.9,2.6l-41,95.8h-23L327.8,2.6H354l26.4,58.7l26.2-58.7H432.9z"/>
	<path class="st1" d="M558.2,98.5h-28l15.3-24.2c-20.2-1.6-36.1-17-36.1-35.7c0-19.8,17.7-35.7,39.5-35.7s39.5,15.9,39.5,35.7
		c0,4.3-0.6,8.5-2.4,12.1C579.1,65.9,558.2,98.5,558.2,98.5z M548.9,53.4c9,0,16.2-6.6,16.2-14.7S557.9,24,548.9,24
		s-16.2,6.5-16.2,14.6S539.9,53.4,548.9,53.4z"/>
</g>
<g>
	<path class="st1" d="M22.6,135.5c-0.7,0-1.4,0.1-2,0.3c-0.6,0.2-1.2,0.5-1.9,0.9c-0.4,0.2-0.8,0.4-1.1,0.5
		c-0.3,0.1-0.6,0.1-0.9,0.1c-0.3,0-0.6-0.1-0.9-0.2c-0.3-0.1-0.6-0.3-0.8-0.6c-0.2-0.3-0.4-0.6-0.5-0.9c-0.1-0.3-0.2-0.6-0.2-0.9
		c0-0.3,0.1-0.7,0.2-0.9c0.1-0.3,0.3-0.5,0.5-0.8c0.2-0.2,0.4-0.5,0.7-0.6c0.3-0.2,0.5-0.4,0.8-0.5c0.9-0.5,1.8-0.8,2.8-1
		c1-0.2,2.1-0.3,3.3-0.3c3.4,0,5.9,0.7,7.6,2.1c1.7,1.4,2.5,3.5,2.5,6.4v11.9c0,0.4,0,0.7,0,1c0,0.3,0,0.5-0.1,0.7
		c0,0.2-0.1,0.4-0.1,0.5c-0.1,0.2-0.1,0.3-0.2,0.5c-0.2,0.4-0.6,0.8-1,1c-0.5,0.3-1,0.4-1.6,0.4c-0.8,0-1.4-0.2-1.9-0.7
		c-0.2-0.2-0.4-0.4-0.5-0.7c-0.1-0.2-0.2-0.5-0.3-0.9c-0.4,0.4-0.9,0.8-1.3,1.1c-0.4,0.3-0.9,0.5-1.3,0.7c-0.5,0.2-1,0.3-1.5,0.4
		c-0.5,0.1-1.2,0.1-1.8,0.1c-1.4,0-2.6-0.2-3.6-0.6c-1-0.4-1.9-0.9-2.6-1.6c-0.6-0.6-1.1-1.4-1.5-2.4c-0.3-0.9-0.5-2-0.5-3
		c0-1,0.2-1.9,0.5-2.7c0.3-0.8,0.8-1.6,1.5-2.2c0.7-0.6,1.6-1.1,2.6-1.5c1-0.4,2.3-0.6,3.7-0.6h5.6v-1.2c0-1.3-0.3-2.3-1-2.9
		S24,135.5,22.6,135.5z M26.8,144.6h-4.6c-1.2,0-2.1,0.2-2.7,0.7c-0.6,0.5-0.9,1.2-0.9,2.1c0,0.8,0.3,1.5,0.9,2
		c0.6,0.5,1.5,0.7,2.8,0.7c0.7,0,1.4-0.1,2-0.2c0.6-0.1,1.1-0.5,1.6-0.9c0.4-0.3,0.6-0.7,0.7-1.2c0.1-0.5,0.2-1.1,0.2-1.9V144.6z"/>
	<path class="st1" d="M54.2,152.5c-0.8,0.8-1.7,1.5-2.8,1.9c-1.1,0.4-2.2,0.6-3.3,0.6c-1.2,0-2.3-0.2-3.2-0.6
		c-1-0.4-1.8-0.9-2.4-1.6c-1-1-1.6-2-2-3.2c-0.3-1.1-0.5-2.4-0.5-3.7v-11.5c0-0.4,0-0.7,0-0.9c0-0.3,0-0.5,0.1-0.7
		c0-0.2,0.1-0.4,0.1-0.5c0.1-0.2,0.1-0.3,0.2-0.5c0.2-0.4,0.6-0.8,1-1.1c0.5-0.3,1-0.4,1.6-0.4c0.6,0,1.2,0.1,1.6,0.4
		c0.5,0.3,0.8,0.6,1,1.1c0.2,0.3,0.3,0.7,0.3,1c0.1,0.4,0.1,0.9,0.1,1.6v10.6c0,0.8,0.1,1.5,0.4,2.1c0.2,0.6,0.5,1,0.9,1.3
		c0.4,0.3,0.8,0.6,1.3,0.7c0.5,0.1,0.9,0.2,1.4,0.2c0.5,0,1-0.1,1.4-0.2c0.5-0.1,0.9-0.4,1.3-0.7c0.4-0.3,0.7-0.8,0.9-1.3
		c0.2-0.6,0.4-1.2,0.4-2.1v-10.6c0-0.4,0-0.7,0-0.9c0-0.3,0-0.5,0.1-0.7c0-0.2,0.1-0.4,0.1-0.5c0.1-0.2,0.1-0.3,0.2-0.5
		c0.2-0.4,0.6-0.8,1-1.1c0.5-0.3,1-0.4,1.6-0.4c0.6,0,1.2,0.1,1.6,0.4c0.5,0.3,0.8,0.6,1,1.1c0.2,0.3,0.3,0.7,0.3,1
		c0.1,0.4,0.1,0.9,0.1,1.6v16.2c0,0.4,0,0.7,0,1c0,0.3,0,0.5-0.1,0.7c0,0.2-0.1,0.4-0.1,0.5c-0.1,0.2-0.1,0.3-0.2,0.5
		c-0.2,0.4-0.6,0.8-1,1c-0.5,0.3-1,0.4-1.6,0.4c-0.8,0-1.4-0.2-1.9-0.7c-0.2-0.2-0.4-0.5-0.6-0.7C54.4,153.2,54.3,152.9,54.2,152.5z
		"/>
	<path class="st1" d="M68.9,136h-0.6c-0.6,0-1,0-1.3-0.1c-0.3,0-0.5-0.1-0.8-0.3c-0.7-0.4-1.1-1-1.1-2c0-0.9,0.4-1.6,1.1-2
		c0.2-0.1,0.5-0.2,0.8-0.3c0.3,0,0.7-0.1,1.3-0.1h0.6v-3.2c0-0.4,0-0.7,0-0.9c0-0.3,0-0.5,0.1-0.7c0-0.2,0.1-0.4,0.1-0.5
		c0.1-0.2,0.1-0.3,0.2-0.5c0.2-0.4,0.6-0.8,1-1.1c0.5-0.3,1-0.4,1.6-0.4c0.6,0,1.2,0.1,1.6,0.4c0.5,0.3,0.8,0.6,1,1.1
		c0.2,0.3,0.3,0.7,0.3,1c0.1,0.4,0.1,0.9,0.1,1.6v3.2h1.8c0.6,0,1,0,1.3,0.1c0.3,0,0.5,0.1,0.8,0.3c0.7,0.4,1.1,1,1.1,2
		c0,0.9-0.4,1.6-1.1,2c-0.2,0.1-0.5,0.2-0.8,0.3c-0.3,0-0.7,0.1-1.3,0.1h-1.8v11.5c0,0.3,0,0.5,0.1,0.8c0.1,0.3,0.2,0.5,0.3,0.7
		c0.1,0.2,0.3,0.3,0.6,0.5c0.2,0.1,0.6,0.2,0.9,0.2c0.4,0,0.7,0.1,1,0.1c0.3,0,0.5,0.1,0.8,0.3c0.4,0.2,0.7,0.5,0.9,0.8
		c0.2,0.4,0.3,0.8,0.3,1.3c0,0.5-0.1,1-0.3,1.3c-0.2,0.4-0.5,0.6-0.9,0.8c-0.3,0.1-0.6,0.2-1,0.3c-0.4,0.1-0.9,0.1-1.5,0.1h-0.3
		c-1.2,0-2.3-0.2-3.2-0.6c-0.9-0.4-1.6-0.9-2.2-1.5c-0.6-0.6-1-1.4-1.2-2.2c-0.3-0.8-0.4-1.7-0.4-2.6V136z"/>
	<path class="st1" d="M104.8,142.7c0,1.1,0,2.1-0.1,3c-0.1,0.9-0.2,1.7-0.4,2.5c-0.2,0.7-0.5,1.4-0.8,2.1c-0.4,0.6-0.8,1.2-1.3,1.8
		c-0.4,0.4-0.8,0.8-1.3,1.1c-0.5,0.4-1,0.7-1.7,0.9c-0.6,0.3-1.3,0.5-2,0.6c-0.7,0.2-1.6,0.2-2.5,0.2c-0.9,0-1.7-0.1-2.5-0.2
		c-0.7-0.2-1.4-0.4-2-0.6c-0.6-0.3-1.2-0.6-1.7-0.9c-0.5-0.4-0.9-0.7-1.3-1.1c-0.5-0.6-1-1.2-1.3-1.8c-0.4-0.6-0.6-1.3-0.8-2.1
		c-0.2-0.7-0.4-1.6-0.4-2.5c-0.1-0.9-0.1-1.9-0.1-3c0-1.1,0-2.1,0.1-3c0.1-0.9,0.2-1.7,0.4-2.5c0.2-0.8,0.5-1.4,0.8-2.1
		c0.4-0.6,0.8-1.2,1.3-1.8c0.4-0.4,0.8-0.8,1.3-1.1c0.5-0.4,1-0.7,1.7-0.9c0.6-0.3,1.3-0.5,2-0.6c0.7-0.2,1.6-0.2,2.5-0.2
		c0.9,0,1.7,0.1,2.5,0.2c0.7,0.2,1.4,0.4,2,0.6c0.6,0.3,1.2,0.6,1.7,0.9c0.5,0.4,0.9,0.7,1.3,1.1c0.5,0.6,1,1.2,1.3,1.8
		c0.4,0.6,0.6,1.3,0.8,2.1c0.2,0.8,0.4,1.6,0.4,2.5C104.7,140.6,104.8,141.6,104.8,142.7z M90.4,142.7c0,0.6,0,1.2,0,1.8
		c0,0.6,0.1,1.1,0.2,1.6c0.1,0.5,0.2,1,0.4,1.4c0.2,0.4,0.4,0.8,0.7,1.1c0.7,0.7,1.6,1,2.8,1c1.2,0,2.1-0.3,2.8-1
		c0.3-0.3,0.6-0.6,0.7-1.1c0.2-0.4,0.3-0.9,0.4-1.4c0.1-0.5,0.2-1,0.2-1.6c0-0.6,0-1.2,0-1.8c0-0.6,0-1.2,0-1.8
		c0-0.6-0.1-1.1-0.2-1.6c-0.1-0.5-0.2-1-0.4-1.4c-0.2-0.4-0.4-0.8-0.7-1.1c-0.7-0.7-1.6-1-2.8-1c-1.2,0-2.1,0.3-2.8,1
		c-0.3,0.3-0.6,0.7-0.7,1.1c-0.2,0.4-0.3,0.9-0.4,1.4c-0.1,0.5-0.2,1-0.2,1.6C90.4,141.5,90.4,142.1,90.4,142.7z"/>
	<path class="st1" d="M117.3,132.9c0.8-0.8,1.7-1.5,2.8-1.9c1.1-0.4,2.1-0.6,3.3-0.6c1.4,0,2.6,0.2,3.6,0.7c1.1,0.5,2,1.3,2.7,2.3
		c1-1.1,2.1-1.8,3.2-2.3c1.1-0.5,2.5-0.7,4-0.7c1.2,0,2.3,0.2,3.3,0.6c1,0.4,1.9,0.9,2.6,1.6c1,1,1.7,2,2,3.2
		c0.4,1.1,0.6,2.4,0.6,3.7v11.5c0,0.7,0,1.3-0.1,1.6c-0.1,0.4-0.2,0.7-0.3,1c-0.2,0.4-0.6,0.8-1,1.1c-0.5,0.3-1,0.4-1.6,0.4
		c-0.6,0-1.2-0.1-1.6-0.4c-0.5-0.3-0.8-0.6-1-1.1c-0.1-0.2-0.1-0.3-0.2-0.5c-0.1-0.2-0.1-0.4-0.1-0.6c0-0.2,0-0.4-0.1-0.7
		c0-0.3,0-0.6,0-0.9v-10.6c0-0.8-0.1-1.5-0.4-2.1c-0.2-0.6-0.5-1-0.9-1.3c-0.4-0.3-0.8-0.6-1.3-0.7c-0.5-0.1-0.9-0.2-1.4-0.2
		c-0.5,0-0.9,0.1-1.4,0.2c-0.5,0.1-0.9,0.4-1.3,0.7c-0.4,0.3-0.7,0.8-0.9,1.3c-0.2,0.5-0.4,1.2-0.4,2v10.8c0,0.7,0,1.3-0.1,1.6
		c-0.1,0.4-0.2,0.7-0.3,1c-0.2,0.4-0.6,0.8-1,1.1c-0.5,0.3-1,0.4-1.6,0.4c-0.6,0-1.2-0.1-1.6-0.4c-0.5-0.3-0.8-0.6-1-1.1
		c-0.1-0.2-0.1-0.3-0.2-0.5c-0.1-0.2-0.1-0.4-0.1-0.6c0-0.2-0.1-0.4-0.1-0.7c0-0.3,0-0.6,0-0.9v-10.6c0-0.8-0.1-1.5-0.4-2.1
		c-0.2-0.6-0.5-1-0.9-1.3c-0.4-0.3-0.8-0.6-1.3-0.7c-0.5-0.1-0.9-0.2-1.4-0.2c-0.5,0-1,0.1-1.4,0.2c-0.5,0.1-0.9,0.4-1.3,0.7
		c-0.4,0.3-0.7,0.8-0.9,1.3c-0.2,0.6-0.4,1.2-0.4,2.1v10.6c0,0.7,0,1.3-0.1,1.6c-0.1,0.4-0.2,0.7-0.3,1c-0.2,0.4-0.6,0.8-1,1.1
		c-0.5,0.3-1,0.4-1.6,0.4c-0.6,0-1.2-0.1-1.6-0.4c-0.5-0.3-0.8-0.6-1-1.1c-0.1-0.2-0.1-0.3-0.2-0.5c-0.1-0.2-0.1-0.4-0.1-0.6
		c0-0.2-0.1-0.4-0.1-0.7c0-0.3,0-0.6,0-0.9v-16.2c0-0.4,0-0.7,0-1c0-0.3,0-0.5,0.1-0.7c0-0.2,0.1-0.4,0.1-0.5
		c0.1-0.2,0.1-0.3,0.2-0.5c0.2-0.4,0.6-0.8,1-1c0.5-0.3,1-0.4,1.6-0.4c0.8,0,1.4,0.2,1.9,0.7c0.2,0.2,0.4,0.5,0.6,0.7
		C117.1,132.2,117.2,132.5,117.3,132.9z"/>
	<path class="st1" d="M160.8,135.5c-0.7,0-1.4,0.1-2,0.3c-0.6,0.2-1.2,0.5-1.9,0.9c-0.4,0.2-0.8,0.4-1.1,0.5
		c-0.3,0.1-0.6,0.1-0.9,0.1c-0.3,0-0.6-0.1-0.9-0.2c-0.3-0.1-0.6-0.3-0.8-0.6c-0.2-0.3-0.4-0.6-0.5-0.9c-0.1-0.3-0.1-0.6-0.1-0.9
		c0-0.3,0.1-0.7,0.2-0.9c0.1-0.3,0.3-0.5,0.5-0.8c0.2-0.2,0.4-0.5,0.7-0.6c0.3-0.2,0.5-0.4,0.8-0.5c0.9-0.5,1.8-0.8,2.8-1
		c1-0.2,2.1-0.3,3.3-0.3c3.4,0,5.9,0.7,7.6,2.1c1.7,1.4,2.5,3.5,2.5,6.4v11.9c0,0.4,0,0.7,0,1c0,0.3,0,0.5-0.1,0.7
		c0,0.2-0.1,0.4-0.1,0.5c-0.1,0.2-0.1,0.3-0.2,0.5c-0.2,0.4-0.6,0.8-1,1c-0.5,0.3-1,0.4-1.6,0.4c-0.8,0-1.4-0.2-1.9-0.7
		c-0.2-0.2-0.4-0.4-0.5-0.7c-0.1-0.2-0.2-0.5-0.3-0.9c-0.4,0.4-0.9,0.8-1.3,1.1c-0.4,0.3-0.9,0.5-1.3,0.7c-0.5,0.2-1,0.3-1.5,0.4
		c-0.5,0.1-1.2,0.1-1.8,0.1c-1.4,0-2.6-0.2-3.6-0.6c-1-0.4-1.9-0.9-2.6-1.6c-0.6-0.6-1.1-1.4-1.5-2.4c-0.3-0.9-0.5-2-0.5-3
		c0-1,0.2-1.9,0.5-2.7c0.3-0.8,0.8-1.6,1.5-2.2c0.7-0.6,1.6-1.1,2.6-1.5c1-0.4,2.3-0.6,3.7-0.6h5.6v-1.2c0-1.3-0.3-2.3-1-2.9
		S162.2,135.5,160.8,135.5z M165,144.6h-4.6c-1.2,0-2.1,0.2-2.7,0.7c-0.6,0.5-0.9,1.2-0.9,2.1c0,0.8,0.3,1.5,0.9,2
		c0.6,0.5,1.5,0.7,2.8,0.7c0.7,0,1.4-0.1,2-0.2c0.6-0.1,1.1-0.5,1.6-0.9c0.4-0.3,0.6-0.7,0.7-1.2c0.1-0.5,0.2-1.1,0.2-1.9V144.6z"/>
	<path class="st1" d="M179.7,136h-0.6c-0.6,0-1,0-1.3-0.1c-0.3,0-0.5-0.1-0.8-0.3c-0.7-0.4-1.1-1-1.1-2c0-0.9,0.4-1.6,1.1-2
		c0.2-0.1,0.5-0.2,0.8-0.3c0.3,0,0.7-0.1,1.3-0.1h0.6v-3.2c0-0.4,0-0.7,0-0.9c0-0.3,0-0.5,0.1-0.7c0-0.2,0.1-0.4,0.1-0.5
		c0.1-0.2,0.1-0.3,0.2-0.5c0.2-0.4,0.6-0.8,1-1.1c0.5-0.3,1-0.4,1.6-0.4c0.6,0,1.2,0.1,1.6,0.4c0.5,0.3,0.8,0.6,1,1.1
		c0.2,0.3,0.3,0.7,0.3,1c0.1,0.4,0.1,0.9,0.1,1.6v3.2h1.8c0.6,0,1,0,1.3,0.1c0.3,0,0.5,0.1,0.8,0.3c0.7,0.4,1.1,1,1.1,2
		c0,0.9-0.4,1.6-1.1,2c-0.2,0.1-0.5,0.2-0.8,0.3c-0.3,0-0.7,0.1-1.3,0.1h-1.8v11.5c0,0.3,0,0.5,0.1,0.8c0.1,0.3,0.2,0.5,0.3,0.7
		c0.1,0.2,0.3,0.3,0.6,0.5c0.2,0.1,0.6,0.2,0.9,0.2c0.4,0,0.7,0.1,1,0.1c0.3,0,0.5,0.1,0.8,0.3c0.4,0.2,0.7,0.5,0.9,0.8
		s0.3,0.8,0.3,1.3c0,0.5-0.1,1-0.3,1.3c-0.2,0.4-0.5,0.6-0.9,0.8c-0.3,0.1-0.6,0.2-1,0.3c-0.4,0.1-0.9,0.1-1.5,0.1h-0.3
		c-1.2,0-2.3-0.2-3.2-0.6c-0.9-0.4-1.6-0.9-2.2-1.5c-0.6-0.6-1-1.4-1.2-2.2c-0.3-0.8-0.4-1.7-0.4-2.6V136z"/>
	<path class="st1" d="M195.9,123.9c0-0.5,0.1-0.9,0.3-1.4c0.2-0.4,0.4-0.8,0.7-1.1s0.7-0.6,1.1-0.7c0.4-0.2,0.9-0.3,1.4-0.3
		c0.5,0,0.9,0.1,1.4,0.3c0.4,0.2,0.8,0.4,1.1,0.7c0.3,0.3,0.6,0.7,0.7,1.1c0.2,0.4,0.3,0.9,0.3,1.4c0,0.5-0.1,0.9-0.3,1.4
		c-0.2,0.4-0.4,0.8-0.7,1.1c-0.3,0.3-0.7,0.6-1.1,0.7c-0.4,0.2-0.9,0.3-1.4,0.3c-0.5,0-0.9-0.1-1.4-0.3c-0.4-0.2-0.8-0.4-1.1-0.7
		s-0.6-0.7-0.7-1.1C196,124.8,195.9,124.4,195.9,123.9z M202.3,150.8c0,0.7,0,1.3-0.1,1.6c-0.1,0.4-0.2,0.7-0.3,1
		c-0.2,0.4-0.6,0.8-1,1.1c-0.5,0.3-1,0.4-1.6,0.4c-0.6,0-1.2-0.1-1.6-0.4c-0.5-0.3-0.8-0.6-1-1.1c-0.1-0.2-0.1-0.3-0.2-0.5
		c-0.1-0.2-0.1-0.4-0.1-0.6c0-0.2-0.1-0.4-0.1-0.7c0-0.3,0-0.6,0-0.9v-15.5c0-0.4,0-0.7,0-0.9c0-0.3,0-0.5,0.1-0.7
		c0-0.2,0.1-0.4,0.1-0.5c0.1-0.2,0.1-0.3,0.2-0.5c0.2-0.4,0.6-0.8,1-1.1c0.5-0.3,1-0.4,1.6-0.4c0.6,0,1.2,0.1,1.6,0.4
		c0.5,0.3,0.8,0.6,1,1.1c0.2,0.3,0.3,0.7,0.3,1s0.1,0.9,0.1,1.6V150.8z"/>
	<path class="st1" d="M229.4,142.7c0,1.1,0,2.1-0.1,3c-0.1,0.9-0.2,1.7-0.4,2.5c-0.2,0.7-0.5,1.4-0.8,2.1c-0.4,0.6-0.8,1.2-1.3,1.8
		c-0.4,0.4-0.8,0.8-1.3,1.1c-0.5,0.4-1,0.7-1.7,0.9c-0.6,0.3-1.3,0.5-2,0.6c-0.7,0.2-1.6,0.2-2.5,0.2c-0.9,0-1.7-0.1-2.5-0.2
		c-0.7-0.2-1.4-0.4-2-0.6c-0.6-0.3-1.2-0.6-1.7-0.9c-0.5-0.4-0.9-0.7-1.3-1.1c-0.5-0.6-1-1.2-1.3-1.8c-0.4-0.6-0.6-1.3-0.8-2.1
		c-0.2-0.7-0.4-1.6-0.4-2.5c-0.1-0.9-0.1-1.9-0.1-3c0-1.1,0-2.1,0.1-3c0.1-0.9,0.2-1.7,0.4-2.5s0.5-1.4,0.8-2.1
		c0.4-0.6,0.8-1.2,1.3-1.8c0.4-0.4,0.8-0.8,1.3-1.1c0.5-0.4,1-0.7,1.7-0.9c0.6-0.3,1.3-0.5,2-0.6c0.7-0.2,1.6-0.2,2.5-0.2
		c0.9,0,1.7,0.1,2.5,0.2c0.7,0.2,1.4,0.4,2,0.6c0.6,0.3,1.2,0.6,1.7,0.9c0.5,0.4,0.9,0.7,1.3,1.1c0.5,0.6,1,1.2,1.3,1.8
		c0.4,0.6,0.6,1.3,0.8,2.1c0.2,0.8,0.4,1.6,0.4,2.5C229.4,140.6,229.4,141.6,229.4,142.7z M215,142.7c0,0.6,0,1.2,0,1.8
		c0,0.6,0.1,1.1,0.2,1.6c0.1,0.5,0.2,1,0.4,1.4c0.2,0.4,0.4,0.8,0.7,1.1c0.7,0.7,1.6,1,2.8,1c1.2,0,2.1-0.3,2.8-1
		c0.3-0.3,0.6-0.6,0.7-1.1c0.2-0.4,0.3-0.9,0.4-1.4c0.1-0.5,0.2-1,0.2-1.6c0-0.6,0-1.2,0-1.8c0-0.6,0-1.2,0-1.8
		c0-0.6-0.1-1.1-0.2-1.6c-0.1-0.5-0.2-1-0.4-1.4c-0.2-0.4-0.4-0.8-0.7-1.1c-0.7-0.7-1.6-1-2.8-1c-1.2,0-2.1,0.3-2.8,1
		c-0.3,0.3-0.6,0.7-0.7,1.1c-0.2,0.4-0.3,0.9-0.4,1.4c-0.1,0.5-0.2,1-0.2,1.6C215,141.5,215,142.1,215,142.7z"/>
	<path class="st1" d="M242,132.9c0.8-0.8,1.7-1.5,2.8-1.9c1.1-0.4,2.2-0.6,3.3-0.6c1.2,0,2.3,0.2,3.2,0.6c1,0.4,1.8,0.9,2.4,1.6
		c1,1,1.6,2,2,3.2c0.3,1.1,0.5,2.4,0.5,3.7v11.5c0,0.7,0,1.3-0.1,1.6c-0.1,0.4-0.2,0.7-0.3,1c-0.2,0.4-0.6,0.8-1,1.1
		c-0.5,0.3-1,0.4-1.6,0.4c-0.6,0-1.2-0.1-1.6-0.4c-0.5-0.3-0.8-0.6-1-1.1c-0.1-0.2-0.1-0.3-0.2-0.5c-0.1-0.2-0.1-0.4-0.1-0.6
		c0-0.2-0.1-0.4-0.1-0.7c0-0.3,0-0.6,0-0.9v-10.6c0-0.8-0.1-1.5-0.4-2.1c-0.2-0.6-0.5-1-0.9-1.3c-0.4-0.3-0.8-0.6-1.3-0.7
		c-0.5-0.1-0.9-0.2-1.4-0.2c-0.5,0-1,0.1-1.4,0.2c-0.5,0.1-0.9,0.4-1.3,0.7c-0.4,0.3-0.7,0.8-0.9,1.3c-0.2,0.6-0.4,1.2-0.4,2.1v10.6
		c0,0.7,0,1.3-0.1,1.6c-0.1,0.4-0.2,0.7-0.3,1c-0.2,0.4-0.6,0.8-1,1.1c-0.5,0.3-1,0.4-1.6,0.4c-0.6,0-1.2-0.1-1.6-0.4
		c-0.5-0.3-0.8-0.6-1-1.1c-0.1-0.2-0.1-0.3-0.2-0.5c-0.1-0.2-0.1-0.4-0.1-0.6c0-0.2-0.1-0.4-0.1-0.7c0-0.3,0-0.6,0-0.9v-16.2
		c0-0.4,0-0.7,0-1c0-0.3,0-0.5,0.1-0.7c0-0.2,0.1-0.4,0.1-0.5c0.1-0.2,0.1-0.3,0.2-0.5c0.2-0.4,0.6-0.8,1-1c0.5-0.3,1-0.4,1.6-0.4
		c0.8,0,1.4,0.2,1.9,0.7c0.2,0.2,0.4,0.5,0.6,0.7C241.8,132.2,241.9,132.5,242,132.9z"/>
	<path class="st1" d="M294.7,142.7c0,1.1,0,2.1-0.1,3s-0.2,1.7-0.4,2.5c-0.2,0.7-0.5,1.4-0.8,2.1c-0.4,0.6-0.8,1.2-1.3,1.8
		c-0.4,0.4-0.8,0.8-1.3,1.1c-0.5,0.4-1,0.7-1.7,0.9c-0.6,0.3-1.3,0.5-2,0.6c-0.7,0.2-1.6,0.2-2.5,0.2c-0.9,0-1.7-0.1-2.5-0.2
		c-0.7-0.2-1.4-0.4-2-0.6c-0.6-0.3-1.2-0.6-1.7-0.9c-0.5-0.4-0.9-0.7-1.3-1.1c-0.5-0.6-1-1.2-1.3-1.8c-0.4-0.6-0.6-1.3-0.8-2.1
		c-0.2-0.7-0.4-1.6-0.4-2.5c-0.1-0.9-0.1-1.9-0.1-3c0-1.1,0-2.1,0.1-3c0.1-0.9,0.2-1.7,0.4-2.5c0.2-0.8,0.5-1.4,0.8-2.1
		c0.4-0.6,0.8-1.2,1.3-1.8c0.4-0.4,0.8-0.8,1.3-1.1c0.5-0.4,1-0.7,1.7-0.9c0.6-0.3,1.3-0.5,2-0.6c0.7-0.2,1.6-0.2,2.5-0.2
		c0.9,0,1.7,0.1,2.5,0.2c0.7,0.2,1.4,0.4,2,0.6c0.6,0.3,1.2,0.6,1.7,0.9s0.9,0.7,1.3,1.1c0.5,0.6,1,1.2,1.3,1.8
		c0.4,0.6,0.6,1.3,0.8,2.1c0.2,0.8,0.4,1.6,0.4,2.5C294.6,140.6,294.7,141.6,294.7,142.7z M280.3,142.7c0,0.6,0,1.2,0,1.8
		c0,0.6,0.1,1.1,0.2,1.6c0.1,0.5,0.2,1,0.4,1.4c0.2,0.4,0.4,0.8,0.7,1.1c0.7,0.7,1.6,1,2.8,1c1.2,0,2.1-0.3,2.8-1
		c0.3-0.3,0.6-0.6,0.7-1.1c0.2-0.4,0.3-0.9,0.4-1.4c0.1-0.5,0.2-1,0.2-1.6c0-0.6,0-1.2,0-1.8c0-0.6,0-1.2,0-1.8
		c0-0.6-0.1-1.1-0.2-1.6c-0.1-0.5-0.2-1-0.4-1.4c-0.2-0.4-0.4-0.8-0.7-1.1c-0.7-0.7-1.6-1-2.8-1c-1.2,0-2.1,0.3-2.8,1
		c-0.3,0.3-0.6,0.7-0.7,1.1c-0.2,0.4-0.3,0.9-0.4,1.4c-0.1,0.5-0.2,1-0.2,1.6S280.3,142.1,280.3,142.7z"/>
	<path class="st1" d="M302.6,128.4c0-0.9,0.1-1.7,0.4-2.6c0.3-0.8,0.7-1.6,1.2-2.2c0.6-0.6,1.3-1.2,2.2-1.5c0.9-0.4,1.9-0.6,3.2-0.6
		h0.3c0.6,0,1.1,0,1.5,0.1c0.4,0.1,0.7,0.2,1,0.3c0.4,0.2,0.6,0.5,0.9,0.8c0.2,0.4,0.3,0.8,0.3,1.3c0,0.5-0.1,1-0.3,1.3
		c-0.2,0.4-0.5,0.6-0.9,0.8c-0.3,0.1-0.5,0.2-0.8,0.3c-0.3,0-0.6,0.1-1,0.1c-0.4,0-0.7,0.1-0.9,0.2c-0.2,0.1-0.4,0.3-0.6,0.5
		c-0.1,0.2-0.3,0.4-0.3,0.7c-0.1,0.3-0.1,0.5-0.1,0.8v2.6h1.8c0.6,0,1,0,1.3,0.1c0.3,0,0.5,0.1,0.8,0.3c0.7,0.4,1.1,1,1.1,2
		c0,0.9-0.4,1.6-1.1,2c-0.2,0.1-0.5,0.2-0.8,0.3c-0.3,0-0.7,0.1-1.3,0.1h-1.8v14.9c0,0.7,0,1.3-0.1,1.6c-0.1,0.4-0.2,0.7-0.3,1
		c-0.2,0.4-0.6,0.8-1,1.1c-0.5,0.3-1,0.4-1.6,0.4c-0.6,0-1.2-0.1-1.6-0.4c-0.5-0.3-0.8-0.6-1-1.1c-0.1-0.2-0.1-0.3-0.2-0.5
		c-0.1-0.2-0.1-0.4-0.1-0.6c0-0.2-0.1-0.4-0.1-0.7c0-0.3,0-0.6,0-0.9V136H302c-0.6,0-1,0-1.3-0.1c-0.3,0-0.5-0.1-0.8-0.3
		c-0.7-0.4-1.1-1-1.1-2c0-0.9,0.4-1.6,1.1-2c0.2-0.1,0.5-0.2,0.8-0.3c0.3,0,0.7-0.1,1.3-0.1h0.6V128.4z"/>
	<path class="st1" d="M329.8,123.9c0-0.5,0.1-0.9,0.3-1.4c0.2-0.4,0.4-0.8,0.7-1.1c0.3-0.3,0.7-0.6,1.1-0.7c0.4-0.2,0.9-0.3,1.4-0.3
		s0.9,0.1,1.4,0.3c0.4,0.2,0.8,0.4,1.1,0.7c0.3,0.3,0.6,0.7,0.7,1.1c0.2,0.4,0.3,0.9,0.3,1.4c0,0.5-0.1,0.9-0.3,1.4
		c-0.2,0.4-0.4,0.8-0.7,1.1c-0.3,0.3-0.7,0.6-1.1,0.7c-0.4,0.2-0.9,0.3-1.4,0.3s-0.9-0.1-1.4-0.3c-0.4-0.2-0.8-0.4-1.1-0.7
		c-0.3-0.3-0.6-0.7-0.7-1.1C329.9,124.8,329.8,124.4,329.8,123.9z M336.2,150.8c0,0.7,0,1.3-0.1,1.6c-0.1,0.4-0.2,0.7-0.3,1
		c-0.2,0.4-0.6,0.8-1,1.1c-0.5,0.3-1,0.4-1.6,0.4c-0.6,0-1.2-0.1-1.6-0.4c-0.5-0.3-0.8-0.6-1-1.1c-0.1-0.2-0.1-0.3-0.2-0.5
		c-0.1-0.2-0.1-0.4-0.1-0.6c0-0.2-0.1-0.4-0.1-0.7c0-0.3,0-0.6,0-0.9v-15.5c0-0.4,0-0.7,0-0.9c0-0.3,0-0.5,0.1-0.7
		c0-0.2,0.1-0.4,0.1-0.5c0.1-0.2,0.1-0.3,0.2-0.5c0.2-0.4,0.6-0.8,1-1.1c0.5-0.3,1-0.4,1.6-0.4c0.6,0,1.2,0.1,1.6,0.4
		c0.5,0.3,0.8,0.6,1,1.1c0.2,0.3,0.3,0.7,0.3,1c0.1,0.4,0.1,0.9,0.1,1.6V150.8z"/>
	<path class="st1" d="M349.8,132.9c0.8-0.8,1.7-1.5,2.8-1.9c1.1-0.4,2.2-0.6,3.3-0.6c1.2,0,2.3,0.2,3.2,0.6c1,0.4,1.8,0.9,2.4,1.6
		c1,1,1.6,2,2,3.2c0.3,1.1,0.5,2.4,0.5,3.7v11.5c0,0.7,0,1.3-0.1,1.6c-0.1,0.4-0.2,0.7-0.3,1c-0.2,0.4-0.6,0.8-1,1.1
		c-0.5,0.3-1,0.4-1.6,0.4c-0.6,0-1.2-0.1-1.6-0.4c-0.5-0.3-0.8-0.6-1-1.1c-0.1-0.2-0.1-0.3-0.2-0.5c-0.1-0.2-0.1-0.4-0.1-0.6
		c0-0.2,0-0.4-0.1-0.7c0-0.3,0-0.6,0-0.9v-10.6c0-0.8-0.1-1.5-0.4-2.1c-0.2-0.6-0.5-1-0.9-1.3c-0.4-0.3-0.8-0.6-1.3-0.7
		c-0.5-0.1-0.9-0.2-1.4-0.2s-1,0.1-1.4,0.2c-0.5,0.1-0.9,0.4-1.3,0.7c-0.4,0.3-0.7,0.8-0.9,1.3c-0.2,0.6-0.4,1.2-0.4,2.1v10.6
		c0,0.7,0,1.3-0.1,1.6c-0.1,0.4-0.2,0.7-0.3,1c-0.2,0.4-0.6,0.8-1,1.1c-0.5,0.3-1,0.4-1.6,0.4c-0.6,0-1.2-0.1-1.6-0.4
		c-0.5-0.3-0.8-0.6-1-1.1c-0.1-0.2-0.1-0.3-0.2-0.5c-0.1-0.2-0.1-0.4-0.1-0.6c0-0.2-0.1-0.4-0.1-0.7c0-0.3,0-0.6,0-0.9v-16.2
		c0-0.4,0-0.7,0-1c0-0.3,0-0.5,0.1-0.7c0-0.2,0.1-0.4,0.1-0.5c0.1-0.2,0.1-0.3,0.2-0.5c0.2-0.4,0.6-0.8,1-1s1-0.4,1.6-0.4
		c0.8,0,1.4,0.2,1.9,0.7c0.2,0.2,0.4,0.5,0.6,0.7C349.6,132.2,349.7,132.5,349.8,132.9z"/>
	<path class="st1" d="M372.6,136H372c-0.6,0-1,0-1.3-0.1c-0.3,0-0.5-0.1-0.8-0.3c-0.7-0.4-1.1-1-1.1-2c0-0.9,0.4-1.6,1.1-2
		c0.2-0.1,0.5-0.2,0.8-0.3c0.3,0,0.7-0.1,1.3-0.1h0.6v-3.2c0-0.4,0-0.7,0-0.9c0-0.3,0-0.5,0.1-0.7c0-0.2,0.1-0.4,0.1-0.5
		c0.1-0.2,0.1-0.3,0.2-0.5c0.2-0.4,0.6-0.8,1-1.1s1-0.4,1.6-0.4c0.6,0,1.2,0.1,1.6,0.4s0.8,0.6,1,1.1c0.2,0.3,0.3,0.7,0.3,1
		c0.1,0.4,0.1,0.9,0.1,1.6v3.2h1.8c0.6,0,1,0,1.3,0.1c0.3,0,0.5,0.1,0.8,0.3c0.7,0.4,1.1,1,1.1,2c0,0.9-0.4,1.6-1.1,2
		c-0.2,0.1-0.5,0.2-0.8,0.3c-0.3,0-0.7,0.1-1.3,0.1h-1.8v11.5c0,0.3,0,0.5,0.1,0.8c0.1,0.3,0.2,0.5,0.3,0.7c0.1,0.2,0.3,0.3,0.6,0.5
		c0.2,0.1,0.6,0.2,0.9,0.2c0.4,0,0.7,0.1,1,0.1c0.3,0,0.5,0.1,0.8,0.3c0.4,0.2,0.7,0.5,0.9,0.8c0.2,0.4,0.3,0.8,0.3,1.3
		c0,0.5-0.1,1-0.3,1.3c-0.2,0.4-0.5,0.6-0.9,0.8c-0.3,0.1-0.6,0.2-1,0.3c-0.4,0.1-0.9,0.1-1.5,0.1h-0.3c-1.2,0-2.3-0.2-3.2-0.6
		c-0.9-0.4-1.6-0.9-2.2-1.5s-1-1.4-1.2-2.2c-0.3-0.8-0.4-1.7-0.4-2.6V136z"/>
	<path class="st1" d="M393.7,144.6c0,0.8,0.1,1.5,0.3,2.2c0.2,0.7,0.6,1.2,1,1.7c0.4,0.5,1,0.8,1.7,1.1c0.7,0.3,1.4,0.4,2.3,0.4
		c0.8,0,1.5-0.1,2.2-0.3c0.7-0.2,1.4-0.5,2-1c0.5-0.3,0.9-0.6,1.2-0.7c0.3-0.1,0.7-0.2,1-0.2c0.3,0,0.6,0.1,0.9,0.2
		c0.3,0.1,0.5,0.3,0.8,0.5c0.2,0.2,0.4,0.5,0.6,0.8c0.1,0.3,0.2,0.6,0.2,1c0,0.6-0.2,1.1-0.7,1.6c-0.4,0.5-1,1-1.7,1.5
		c-0.8,0.6-1.8,1-2.9,1.2c-1.1,0.3-2.3,0.4-3.7,0.4c-1.4,0-2.8-0.2-4.1-0.6c-1.3-0.4-2.5-1-3.6-2c-1-0.9-1.9-2.2-2.5-3.8
		c-0.6-1.6-0.9-3.6-0.9-6c0-2,0.3-3.7,0.8-5.2c0.5-1.5,1.2-2.8,2.1-3.9c0.9-1,2-1.8,3.3-2.4c1.3-0.5,2.7-0.8,4.3-0.8
		c1.6,0,3.1,0.3,4.3,0.8c1.3,0.5,2.4,1.3,3.2,2.3c0.9,1,1.6,2.1,2.1,3.4s0.8,2.7,0.8,4.2c0,0.5,0,0.9-0.1,1.4
		c-0.1,0.5-0.3,0.9-0.7,1.3c-0.4,0.4-0.8,0.6-1.3,0.7c-0.5,0.1-0.9,0.1-1.4,0.1H393.7z M402.9,140.5c0-0.5-0.1-1-0.1-1.4
		c-0.1-0.4-0.2-0.8-0.4-1.2c-0.3-0.7-0.8-1.3-1.5-1.8c-0.7-0.5-1.5-0.7-2.5-0.7c-1,0-1.9,0.2-2.5,0.7c-0.7,0.5-1.2,1.1-1.5,1.8
		c-0.2,0.4-0.3,0.9-0.4,1.2c-0.1,0.4-0.1,0.8-0.1,1.4H402.9z"/>
	<path class="st1" d="M421,133c0.3-0.3,0.6-0.7,1.1-1c0.4-0.3,0.9-0.6,1.4-0.8c0.5-0.2,1-0.4,1.6-0.6c0.6-0.1,1.1-0.2,1.7-0.2
		c0.9,0,1.7,0.1,2.4,0.3c0.6,0.2,1.2,0.5,1.8,0.8c0.4,0.3,0.8,0.7,1.1,1.1c0.3,0.4,0.4,0.9,0.4,1.4c0,0.4-0.1,0.9-0.3,1.2
		c-0.2,0.4-0.4,0.7-0.6,1c-0.3,0.3-0.6,0.5-0.9,0.6c-0.4,0.1-0.7,0.2-1.1,0.2c-0.6,0-1.3-0.2-2.1-0.6c-0.4-0.2-0.7-0.3-1.1-0.5
		c-0.4-0.1-0.8-0.2-1.2-0.2c-0.5,0-1,0.1-1.5,0.3c-0.5,0.2-0.9,0.4-1.3,0.8c-0.4,0.4-0.7,0.8-0.9,1.4c-0.2,0.6-0.3,1.2-0.3,2v10.6
		c0,0.7,0,1.3-0.1,1.6c-0.1,0.4-0.2,0.7-0.3,1c-0.2,0.4-0.6,0.8-1,1.1c-0.5,0.3-1,0.4-1.6,0.4c-0.6,0-1.2-0.1-1.6-0.4
		c-0.5-0.3-0.8-0.6-1-1.1c-0.1-0.2-0.1-0.3-0.2-0.5c-0.1-0.2-0.1-0.4-0.1-0.6c0-0.2-0.1-0.4-0.1-0.7c0-0.3,0-0.6,0-0.9v-16.2
		c0-0.4,0-0.7,0-1c0-0.3,0-0.5,0.1-0.7c0-0.2,0.1-0.4,0.1-0.5c0.1-0.2,0.1-0.3,0.2-0.5c0.2-0.4,0.6-0.8,1-1c0.5-0.3,1-0.4,1.6-0.4
		c0.8,0,1.4,0.2,1.9,0.7c0.2,0.2,0.4,0.5,0.6,0.7C420.8,132.2,420.9,132.6,421,133z"/>
	<path class="st1" d="M444.7,135.5c-0.7,0-1.4,0.1-2,0.3c-0.6,0.2-1.2,0.5-1.9,0.9c-0.4,0.2-0.8,0.4-1.1,0.5
		c-0.3,0.1-0.6,0.1-0.9,0.1c-0.3,0-0.6-0.1-0.9-0.2c-0.3-0.1-0.6-0.3-0.8-0.6c-0.2-0.3-0.4-0.6-0.5-0.9c-0.1-0.3-0.1-0.6-0.1-0.9
		c0-0.3,0.1-0.7,0.2-0.9c0.1-0.3,0.3-0.5,0.5-0.8c0.2-0.2,0.4-0.5,0.7-0.6c0.3-0.2,0.5-0.4,0.8-0.5c0.9-0.5,1.8-0.8,2.8-1
		c1-0.2,2.1-0.3,3.3-0.3c3.4,0,5.9,0.7,7.6,2.1c1.7,1.4,2.5,3.5,2.5,6.4v11.9c0,0.4,0,0.7,0,1c0,0.3,0,0.5-0.1,0.7
		c0,0.2-0.1,0.4-0.1,0.5c-0.1,0.2-0.1,0.3-0.2,0.5c-0.2,0.4-0.6,0.8-1,1c-0.5,0.3-1,0.4-1.6,0.4c-0.8,0-1.4-0.2-1.9-0.7
		c-0.2-0.2-0.4-0.4-0.5-0.7c-0.1-0.2-0.2-0.5-0.3-0.9c-0.4,0.4-0.9,0.8-1.3,1.1c-0.4,0.3-0.9,0.5-1.3,0.7c-0.5,0.2-1,0.3-1.5,0.4
		c-0.5,0.1-1.2,0.1-1.8,0.1c-1.4,0-2.6-0.2-3.6-0.6c-1-0.4-1.9-0.9-2.6-1.6c-0.6-0.6-1.1-1.4-1.5-2.4c-0.3-0.9-0.5-2-0.5-3
		c0-1,0.2-1.9,0.5-2.7c0.3-0.8,0.8-1.6,1.5-2.2c0.7-0.6,1.6-1.1,2.6-1.5c1-0.4,2.3-0.6,3.7-0.6h5.6v-1.2c0-1.3-0.3-2.3-1-2.9
		S446.1,135.5,444.7,135.5z M448.9,144.6h-4.6c-1.2,0-2.1,0.2-2.7,0.7c-0.6,0.5-0.9,1.2-0.9,2.1c0,0.8,0.3,1.5,0.9,2
		c0.6,0.5,1.5,0.7,2.8,0.7c0.7,0,1.4-0.1,2-0.2c0.6-0.1,1.1-0.5,1.6-0.9c0.4-0.3,0.6-0.7,0.7-1.2c0.1-0.5,0.2-1.1,0.2-1.9V144.6z"/>
	<path class="st1" d="M472,130.4c1,0,1.8,0.1,2.6,0.3c0.7,0.2,1.5,0.5,2.1,0.9c0.3,0.2,0.7,0.4,1,0.6c0.3,0.2,0.7,0.5,0.9,0.8
		c0.3,0.3,0.5,0.6,0.7,0.9c0.2,0.3,0.3,0.7,0.3,1.1c0,0.4-0.1,0.7-0.2,1.1c-0.1,0.3-0.4,0.6-0.6,0.9c-0.2,0.2-0.5,0.4-0.8,0.6
		c-0.3,0.2-0.7,0.2-1,0.2c-0.4,0-0.7-0.1-1-0.2c-0.3-0.1-0.7-0.3-1.1-0.6c-0.5-0.4-1-0.6-1.4-0.8c-0.4-0.2-0.9-0.3-1.5-0.3
		c-1.4,0-2.5,0.6-3.4,1.6c-0.5,0.6-0.8,1.3-1,2.1s-0.3,1.9-0.3,3.1c0,1.3,0.1,2.3,0.3,3.2c0.2,0.8,0.6,1.6,1,2.1
		c0.9,1,2,1.6,3.4,1.6c0.6,0,1.1-0.1,1.5-0.2c0.4-0.2,0.9-0.4,1.4-0.8c0.4-0.3,0.8-0.5,1.1-0.7c0.3-0.1,0.7-0.2,1-0.2
		c0.4,0,0.7,0.1,1,0.2s0.6,0.4,0.8,0.6c0.6,0.6,0.9,1.2,0.9,2c0,0.4-0.1,0.7-0.3,1.1c-0.2,0.3-0.4,0.6-0.7,0.9
		c-0.3,0.3-0.6,0.5-0.9,0.8c-0.3,0.2-0.7,0.5-1,0.6c-0.7,0.4-1.4,0.7-2.2,0.9c-0.7,0.2-1.6,0.3-2.6,0.3c-0.8,0-1.6-0.1-2.5-0.2
		c-0.8-0.2-1.7-0.4-2.5-0.8c-0.8-0.4-1.6-0.9-2.3-1.5c-0.7-0.6-1.3-1.4-1.8-2.3c-0.5-0.9-1-2-1.3-3.2c-0.3-1.2-0.5-2.7-0.5-4.3
		c0-1.6,0.2-3.1,0.5-4.3c0.3-1.2,0.7-2.3,1.3-3.2c0.5-0.9,1.2-1.7,1.9-2.3c0.7-0.6,1.5-1.1,2.3-1.5c0.8-0.4,1.6-0.6,2.5-0.8
		C470.3,130.5,471.1,130.4,472,130.4z"/>
	<path class="st1" d="M486.7,136h-0.6c-0.6,0-1,0-1.3-0.1c-0.3,0-0.5-0.1-0.8-0.3c-0.7-0.4-1.1-1-1.1-2c0-0.9,0.4-1.6,1.1-2
		c0.2-0.1,0.5-0.2,0.8-0.3c0.3,0,0.7-0.1,1.3-0.1h0.6v-3.2c0-0.4,0-0.7,0-0.9c0-0.3,0-0.5,0.1-0.7c0-0.2,0.1-0.4,0.1-0.5
		c0.1-0.2,0.1-0.3,0.2-0.5c0.2-0.4,0.6-0.8,1-1.1s1-0.4,1.6-0.4c0.6,0,1.2,0.1,1.6,0.4s0.8,0.6,1,1.1c0.2,0.3,0.3,0.7,0.3,1
		c0.1,0.4,0.1,0.9,0.1,1.6v3.2h1.8c0.6,0,1,0,1.3,0.1c0.3,0,0.5,0.1,0.8,0.3c0.7,0.4,1.1,1,1.1,2c0,0.9-0.4,1.6-1.1,2
		c-0.2,0.1-0.5,0.2-0.8,0.3c-0.3,0-0.7,0.1-1.3,0.1h-1.8v11.5c0,0.3,0,0.5,0.1,0.8c0.1,0.3,0.2,0.5,0.3,0.7c0.1,0.2,0.3,0.3,0.6,0.5
		c0.2,0.1,0.6,0.2,0.9,0.2c0.4,0,0.7,0.1,1,0.1c0.3,0,0.5,0.1,0.8,0.3c0.4,0.2,0.7,0.5,0.9,0.8c0.2,0.4,0.3,0.8,0.3,1.3
		c0,0.5-0.1,1-0.3,1.3c-0.2,0.4-0.5,0.6-0.9,0.8c-0.3,0.1-0.6,0.2-1,0.3c-0.4,0.1-0.9,0.1-1.5,0.1h-0.3c-1.2,0-2.3-0.2-3.2-0.6
		c-0.9-0.4-1.6-0.9-2.2-1.5s-1-1.4-1.2-2.2c-0.3-0.8-0.4-1.7-0.4-2.6V136z"/>
	<path class="st1" d="M502.9,123.9c0-0.5,0.1-0.9,0.3-1.4c0.2-0.4,0.4-0.8,0.7-1.1c0.3-0.3,0.7-0.6,1.1-0.7c0.4-0.2,0.9-0.3,1.4-0.3
		c0.5,0,0.9,0.1,1.4,0.3c0.4,0.2,0.8,0.4,1.1,0.7c0.3,0.3,0.6,0.7,0.7,1.1c0.2,0.4,0.3,0.9,0.3,1.4c0,0.5-0.1,0.9-0.3,1.4
		c-0.2,0.4-0.4,0.8-0.7,1.1c-0.3,0.3-0.7,0.6-1.1,0.7c-0.4,0.2-0.9,0.3-1.4,0.3c-0.5,0-0.9-0.1-1.4-0.3c-0.4-0.2-0.8-0.4-1.1-0.7
		c-0.3-0.3-0.6-0.7-0.7-1.1C503,124.8,502.9,124.4,502.9,123.9z M509.4,150.8c0,0.7,0,1.3-0.1,1.6c-0.1,0.4-0.2,0.7-0.3,1
		c-0.2,0.4-0.6,0.8-1,1.1c-0.5,0.3-1,0.4-1.6,0.4c-0.6,0-1.2-0.1-1.6-0.4c-0.5-0.3-0.8-0.6-1-1.1c-0.1-0.2-0.1-0.3-0.2-0.5
		c-0.1-0.2-0.1-0.4-0.1-0.6c0-0.2-0.1-0.4-0.1-0.7c0-0.3,0-0.6,0-0.9v-15.5c0-0.4,0-0.7,0-0.9c0-0.3,0-0.5,0.1-0.7
		c0-0.2,0.1-0.4,0.1-0.5c0.1-0.2,0.1-0.3,0.2-0.5c0.2-0.4,0.6-0.8,1-1.1c0.5-0.3,1-0.4,1.6-0.4c0.6,0,1.2,0.1,1.6,0.4
		c0.5,0.3,0.8,0.6,1,1.1c0.2,0.3,0.3,0.7,0.3,1c0.1,0.4,0.1,0.9,0.1,1.6V150.8z"/>
	<path class="st1" d="M515.1,135.2c-0.2-0.5-0.3-1-0.4-1.5s-0.1-0.9,0.1-1.3c0.2-0.5,0.5-1,1-1.3c0.5-0.4,1.1-0.5,1.8-0.5
		c0.5,0,0.9,0.1,1.2,0.2c0.3,0.2,0.6,0.4,0.8,0.6c0.2,0.3,0.4,0.6,0.5,0.9c0.1,0.3,0.3,0.7,0.4,1.1l3.9,11.7l3.9-11.7
		c0.1-0.4,0.3-0.7,0.4-1.1c0.1-0.3,0.3-0.7,0.5-0.9c0.2-0.3,0.5-0.5,0.8-0.6c0.3-0.2,0.7-0.2,1.2-0.2c0.7,0,1.2,0.2,1.8,0.5
		c0.5,0.4,0.9,0.8,1,1.3c0.1,0.4,0.2,0.8,0.1,1.3c-0.1,0.5-0.2,1-0.4,1.5l-5.6,16.6c-0.2,0.7-0.4,1.2-0.6,1.5
		c-0.2,0.4-0.4,0.7-0.7,0.9c-0.6,0.5-1.3,0.8-2.2,0.8c-0.9,0-1.6-0.3-2.2-0.8c-0.3-0.2-0.5-0.5-0.7-0.9c-0.2-0.4-0.4-0.9-0.6-1.5
		L515.1,135.2z"/>
	<path class="st1" d="M538.8,123.9c0-0.5,0.1-0.9,0.3-1.4c0.2-0.4,0.4-0.8,0.7-1.1c0.3-0.3,0.7-0.6,1.1-0.7c0.4-0.2,0.9-0.3,1.4-0.3
		s0.9,0.1,1.4,0.3c0.4,0.2,0.8,0.4,1.1,0.7c0.3,0.3,0.6,0.7,0.7,1.1c0.2,0.4,0.3,0.9,0.3,1.4c0,0.5-0.1,0.9-0.3,1.4
		c-0.2,0.4-0.4,0.8-0.7,1.1c-0.3,0.3-0.7,0.6-1.1,0.7c-0.4,0.2-0.9,0.3-1.4,0.3s-0.9-0.1-1.4-0.3c-0.4-0.2-0.8-0.4-1.1-0.7
		c-0.3-0.3-0.6-0.7-0.7-1.1C538.9,124.8,538.8,124.4,538.8,123.9z M545.3,150.8c0,0.7,0,1.3-0.1,1.6c-0.1,0.4-0.2,0.7-0.3,1
		c-0.2,0.4-0.6,0.8-1,1.1c-0.5,0.3-1,0.4-1.6,0.4c-0.6,0-1.2-0.1-1.6-0.4c-0.5-0.3-0.8-0.6-1-1.1c-0.1-0.2-0.1-0.3-0.2-0.5
		c-0.1-0.2-0.1-0.4-0.1-0.6c0-0.2-0.1-0.4-0.1-0.7c0-0.3,0-0.6,0-0.9v-15.5c0-0.4,0-0.7,0-0.9c0-0.3,0-0.5,0.1-0.7
		c0-0.2,0.1-0.4,0.1-0.5c0.1-0.2,0.1-0.3,0.2-0.5c0.2-0.4,0.6-0.8,1-1.1c0.5-0.3,1-0.4,1.6-0.4c0.6,0,1.2,0.1,1.6,0.4
		c0.5,0.3,0.8,0.6,1,1.1c0.2,0.3,0.3,0.7,0.3,1c0.1,0.4,0.1,0.9,0.1,1.6V150.8z"/>
	<path class="st1" d="M554.1,136h-0.6c-0.6,0-1,0-1.3-0.1c-0.3,0-0.5-0.1-0.8-0.3c-0.7-0.4-1.1-1-1.1-2c0-0.9,0.4-1.6,1.1-2
		c0.2-0.1,0.5-0.2,0.8-0.3c0.3,0,0.7-0.1,1.3-0.1h0.6v-3.2c0-0.4,0-0.7,0-0.9c0-0.3,0-0.5,0.1-0.7c0-0.2,0.1-0.4,0.1-0.5
		c0.1-0.2,0.1-0.3,0.2-0.5c0.2-0.4,0.6-0.8,1-1.1s1-0.4,1.6-0.4c0.6,0,1.2,0.1,1.6,0.4s0.8,0.6,1,1.1c0.2,0.3,0.3,0.7,0.3,1
		c0.1,0.4,0.1,0.9,0.1,1.6v3.2h1.8c0.6,0,1,0,1.3,0.1c0.3,0,0.5,0.1,0.8,0.3c0.7,0.4,1.1,1,1.1,2c0,0.9-0.4,1.6-1.1,2
		c-0.2,0.1-0.5,0.2-0.8,0.3c-0.3,0-0.7,0.1-1.3,0.1h-1.8v11.5c0,0.3,0,0.5,0.1,0.8c0.1,0.3,0.2,0.5,0.3,0.7c0.1,0.2,0.3,0.3,0.6,0.5
		c0.2,0.1,0.6,0.2,0.9,0.2c0.4,0,0.7,0.1,1,0.1c0.3,0,0.5,0.1,0.8,0.3c0.4,0.2,0.7,0.5,0.9,0.8c0.2,0.4,0.3,0.8,0.3,1.3
		c0,0.5-0.1,1-0.3,1.3c-0.2,0.4-0.5,0.6-0.9,0.8c-0.3,0.1-0.6,0.2-1,0.3c-0.4,0.1-0.9,0.1-1.5,0.1h-0.3c-1.2,0-2.3-0.2-3.2-0.6
		c-0.9-0.4-1.6-0.9-2.2-1.5s-1-1.4-1.2-2.2c-0.3-0.8-0.4-1.7-0.4-2.6V136z"/>
	<path class="st1" d="M571.6,158.3c0.6,0,1.1-0.2,1.5-0.5c0.4-0.3,0.8-0.9,1.1-1.8l0.9-2.6l-6.2-18.3c-0.2-0.5-0.3-1-0.4-1.5
		c-0.1-0.5-0.1-0.9,0.1-1.3c0.2-0.5,0.5-1,1-1.3c0.5-0.4,1.1-0.5,1.8-0.5c0.5,0,0.9,0.1,1.2,0.2c0.3,0.2,0.6,0.4,0.8,0.6
		c0.2,0.3,0.4,0.6,0.5,0.9c0.1,0.3,0.3,0.7,0.4,1.1l3.8,11.9l3.9-11.9c0.1-0.4,0.3-0.7,0.4-1.1c0.1-0.3,0.3-0.7,0.5-0.9
		c0.2-0.3,0.5-0.5,0.8-0.6c0.3-0.2,0.7-0.2,1.2-0.2c0.7,0,1.2,0.2,1.8,0.5c0.5,0.4,0.9,0.8,1,1.3c0.1,0.4,0.2,0.8,0.1,1.3
		s-0.2,1-0.4,1.5l-8.1,23.5c-0.2,0.7-0.5,1.2-0.8,1.7c-0.3,0.5-0.7,0.9-1,1.3c-0.7,0.7-1.5,1.2-2.3,1.5c-0.8,0.3-1.7,0.4-2.6,0.4
		c-0.3,0-0.7,0-1.2-0.1c-0.5,0-0.8-0.1-1.1-0.3c-0.4-0.2-0.7-0.5-1-0.9c-0.2-0.4-0.4-0.9-0.4-1.5c0-0.6,0.1-1.1,0.4-1.5
		c0.2-0.4,0.6-0.7,1-0.9c0.2-0.1,0.4-0.2,0.6-0.2C570.9,158.3,571.2,158.3,571.6,158.3z"/>
</g>
</svg>
